<svg xmlns="http://www.w3.org/2000/svg" width="165" height="75.699" viewBox="0 0 165 75.699"><path d="M82.322 26.23c-1.692 0-2.825-1.21-2.825-2.778 0-1.57 1.133-2.773 2.825-2.773 1.688 0 2.818 1.21 2.818 2.77 0 1.57-1.13 2.77-2.818 2.77zm0-4.512c-.97 0-1.535.656-1.535 1.733 0 1.09.566 1.74 1.535 1.74.962 0 1.53-.64 1.53-1.73 0-1.07-.567-1.73-1.53-1.73zm6.315 2.635v1.816h-1.26v-5.44h1.916c1.53 0 2.184.77 2.184 1.77 0 1.08-.682 1.84-2.184 1.84h-.656zm0-.95h.657c.656 0 .924-.328.924-.89 0-.496-.29-.832-.924-.832h-.656v1.73zm8.633-2.665v.97h-2.23v1.266h1.71v.932h-1.71V25.2h2.23v.97h-3.495v-5.432h3.496zm3.73.192l2.578 3.263c-.018-.21-.03-.406-.03-.58v-2.875h1.11v5.43h-.655c-.194 0-.317-.048-.44-.208l-2.56-3.236c.015.19.026.373.026.534v2.91h-1.12v-5.43h.66c.21 0 .28.026.41.193zM81.04 33.01h.202c.186 0 .32-.06.403-.176l1.223-1.774c.134-.193.294-.25.544-.25h1.096l-1.61 2.196c-.115.16-.24.257-.37.328.19.07.344.182.474.387l1.64 2.52h-1.126c-.286 0-.39-.08-.492-.23l-1.23-1.89c-.09-.13-.213-.19-.448-.19h-.306v2.31h-1.26v-5.43h1.26v2.2zm7.076-2.006l2.58 3.262c-.02-.21-.03-.406-.03-.582V30.81h1.11v5.43h-.656c-.193 0-.317-.047-.44-.207l-2.56-3.236c.014.19.025.373.025.533v2.91h-1.11v-5.43h.663c.217 0 .28.027.418.194zm8.887 5.296c-1.692 0-2.826-1.207-2.826-2.776 0-1.57 1.134-2.774 2.826-2.774 1.69 0 2.818 1.212 2.818 2.774 0 1.57-1.13 2.777-2.81 2.777zm0-4.51c-.97 0-1.535.656-1.535 1.734 0 1.09.566 1.733 1.535 1.733.96 0 1.53-.644 1.53-1.733-.002-1.078-.57-1.733-1.53-1.733zm4.197-.98h1.06c.218 0 .37.11.416.273l.745 2.833c.05.182.11.395.14.622.05-.234.11-.44.17-.622l.88-2.833c.05-.138.2-.27.41-.27h.38c.22 0 .36.103.42.27l.88 2.834c.06.175.12.37.17.592.04-.22.09-.42.13-.6l.75-2.84c.04-.15.2-.27.41-.27h.99l-1.67 5.43h-1.14l-1.02-3.37c-.03-.11-.07-.23-.11-.37-.03.13-.07.26-.1.36l-1.03 3.36h-1.14l-1.68-5.43zm11.445 4.425h2.013v1.006h-3.273v-5.43h1.26v4.43zm8.185-4.425v.97h-2.23v1.267h1.708v.932H118.6v1.29h2.23v.97h-3.496v-5.43h3.496zm4.758 5.43h-2.11v-5.43h2.11c1.69 0 2.817 1.152 2.817 2.714 0 1.57-1.13 2.717-2.817 2.717zm0-4.46h-.842v3.492h.842c.96 0 1.528-.663 1.528-1.748 0-1.078-.567-1.744-1.528-1.744zm8.462 3.388v-.824h-.537c-.16 0-.253-.093-.253-.224v-.693h1.93v2.292c-.555.4-1.193.58-2.08.58-1.587 0-2.773-1.19-2.773-2.78 0-1.62 1.118-2.78 2.87-2.78.91 0 1.584.31 2.02.73l-.366.55c-.07.1-.16.17-.28.17-.07 0-.15-.03-.23-.08-.4-.24-.68-.34-1.18-.34-.94 0-1.53.69-1.53 1.73 0 1.14.67 1.8 1.58 1.8.35 0 .61-.07.85-.17zm7.187-4.358v.97h-2.23v1.267h1.707v.932h-1.707v1.29h2.23v.97h-3.497v-5.43h3.497zm-57.96 10.072v.97h-2.23v1.375h1.858v.973h-1.857v2.114H79.78v-5.432h3.498zm8.253 2.714c0 .393-.068.758-.203 1.095-.136.34-.326.64-.573.89-.245.25-.542.45-.89.59-.346.14-.73.22-1.152.22-.423 0-.808-.07-1.156-.21-.348-.14-.646-.33-.893-.58-.248-.25-.44-.54-.575-.88-.135-.33-.202-.7-.202-1.09s.067-.75.203-1.09c.13-.34.32-.63.57-.88.24-.25.54-.44.89-.58.35-.14.73-.21 1.15-.21.42 0 .8.07 1.15.21s.64.34.89.59c.24.25.43.55.57.88.13.34.2.71.2 1.1zm-1.29 0c0-.27-.034-.51-.103-.725-.07-.21-.17-.39-.3-.54-.13-.15-.29-.26-.48-.34-.187-.08-.403-.12-.643-.12-.244 0-.46.04-.65.12-.19.08-.352.2-.482.35-.13.15-.23.33-.3.55-.07.22-.104.46-.104.73 0 .27.035.52.104.73.07.22.17.4.3.55.13.15.29.27.48.35.19.08.408.12.652.12.24 0 .456-.04.644-.12.19-.08.35-.19.48-.34.13-.15.23-.33.3-.55.068-.21.103-.46.103-.73zm6.39 1.722c.17 0 .32-.028.453-.084.134-.057.246-.137.338-.24.1-.105.17-.233.22-.383.05-.15.08-.32.08-.51v-3.22h1.26v3.22c0 .34-.05.64-.16.92s-.26.52-.46.72c-.2.2-.44.36-.73.47-.29.11-.61.17-.97.17s-.68-.05-.97-.16c-.28-.11-.53-.27-.73-.47-.2-.2-.35-.44-.46-.72-.1-.28-.16-.58-.16-.91V40.9h1.26v3.21c0 .19.03.36.08.51.05.15.12.28.21.385.1.107.21.188.34.245.13.054.29.082.45.082zm6.192-4.428c.037.004.07.013.1.027s.058.033.086.06c.027.024.058.057.094.1l2.58 3.26c-.01-.104-.017-.205-.022-.303-.005-.098-.008-.19-.008-.278v-2.874h1.11v5.432h-.655c-.098 0-.18-.015-.246-.045s-.13-.09-.19-.17l-2.56-3.24.02.27c.01.09.01.17.01.25v2.91h-1.11v-5.43h.81zm12 2.706c0 .393-.068.755-.203 1.086-.14.332-.33.62-.58.86-.25.244-.54.432-.89.568-.35.135-.73.203-1.15.203h-2.11V40.88H112c.424 0 .807.07 1.154.207.347.137.644.326.89.566.246.24.436.527.572.86.134.332.202.693.202 1.083zm-1.29 0c0-.27-.035-.51-.104-.727-.07-.22-.17-.4-.3-.55-.13-.16-.29-.27-.48-.35-.187-.08-.403-.12-.643-.12h-.842v3.49h.842c.24 0 .456-.04.645-.12.19-.09.35-.2.48-.35.13-.15.23-.34.3-.55.067-.22.102-.46.102-.73zm9.185 2.717h-.976c-.11 0-.2-.025-.27-.076-.07-.05-.12-.116-.14-.196l-.32-.94h-2.06l-.32.95c-.02.07-.07.14-.14.19-.07.06-.16.09-.26.09h-.98l2.11-5.43h1.29l2.1 5.43zm-3.488-2.076h1.48l-.5-1.487c-.03-.094-.07-.206-.11-.334-.05-.128-.09-.267-.13-.416-.04.15-.08.292-.13.42-.04.13-.08.242-.12.337l-.5 1.48zm10.1-3.355v1h-1.53v4.432h-1.26v-4.432h-1.53v-1h4.31zm4.14 5.43h-1.27V40.88h1.27v5.433zm8.6-2.716c0 .393-.07.758-.21 1.095-.14.34-.33.64-.57.89-.25.25-.55.45-.89.59-.35.14-.73.22-1.16.22-.42 0-.81-.07-1.16-.21-.35-.14-.65-.33-.9-.58-.25-.25-.44-.54-.58-.88-.14-.33-.21-.7-.21-1.09s.07-.75.2-1.09c.14-.34.33-.63.58-.88.25-.25.54-.44.89-.58.34-.14.73-.21 1.15-.21.42 0 .8.07 1.15.21.34.15.64.34.89.59.24.25.43.55.57.88.13.34.2.71.2 1.1zm-1.29 0c0-.27-.04-.51-.11-.725-.07-.21-.17-.39-.3-.54-.13-.15-.29-.26-.48-.34-.19-.08-.41-.12-.65-.12-.24 0-.46.04-.65.12-.19.08-.35.2-.48.35-.13.15-.23.33-.3.55-.07.22-.11.46-.11.73 0 .27.03.52.1.73.07.22.17.4.3.55.13.15.29.27.48.35.19.08.4.12.65.12.24 0 .45-.04.64-.12.19-.08.35-.19.48-.34.13-.15.23-.33.3-.55.06-.21.1-.46.1-.73zm4.93-2.706c.03.004.07.013.1.027s.06.033.08.06c.02.024.06.057.09.1l2.58 3.26-.03-.303s-.01-.19-.01-.278v-2.874h1.11v5.432H149c-.097 0-.18-.015-.246-.045-.07-.03-.133-.09-.195-.17L146 42.86l.017.277c.006.09.008.176.008.255v2.91h-1.11v-5.43h.664c.05 0 .1 0 .13.006zM54.04 22.025l-1.688-1.26L62.787 6.798l1.687 1.26zm-3.173-2.18l-1.886-.94 3.75-7.517 1.89.94zm-3.513-1.577l-2.023-.588L49.02 5l2.024.588zm-4.97-9.49l2.096.215-.864 8.352-2.095-.218m-2.46-9.405l.72 9.38-2.1.162-.72-9.38m-2.63 3.438l1.63 6.228-2.03.534-1.63-6.23m-1.92 7.71l-1.82-3.914 1.91-.888 1.82 3.913zm-2.49-.508l.98 1.383-1.72 1.21-.97-1.39m-5.3-2.34l4.94 4.85-1.47 1.5-4.94-4.85m-3.81.96l7.65 5.24-1.18 1.74-7.64-5.24m1.98 4.63l4.81 2.13-.85 1.92-4.84-2.11m4.26 3.79L5.5 29.03 5 31.08l14.257 3.454m-.382 3.83l-10.636-.62.12-2.1 10.63.62zM8.872 43.46l-.254-2.09 10.31-1.255.254 2.09zm8.993 3.184l-.624-2.01 2.31-.717.63 2.012zm-3.808 6.804l-.973-1.868 7.75-4.037.972 1.868zm2.54 4.876l-1.29-1.664 7.442-5.775 1.29 1.664zm4.07 3.748L19.1 60.666l6.132-6.834 1.568 1.406zm7.1-1.072l-1.794-1.106 2.222-3.61 1.795 1.105zm3.79-2.83l1.96.767-3 7.686-1.962-.766m7.258 1.406l-2.067-.404 1.45-7.44 2.068.4zm3.19-7.253l2.105.03-.07 5.267-2.105-.028m5.997-5.73l1.684 10.05-2.077.35-1.685-10.05m5.858 5l-2.086-5.79 1.982-.72 2.085 5.79zm10.94 4.73l-7.64-13.02-1.82 1.05 7.638 13.03m-2.825-16.5l1.165 1.19-1.523 1.45-1.164-1.2m4.13-4.29l5.25 4.3-1.33 1.62-5.25-4.31m3.35-4.92l5.37 3-1.02 1.84-5.37-2.98m2.4-5.42l2.59.88-.67 1.99-2.59-.88M69.53 44l-8.118-1.21.31-2.083 8.118 1.21zm-2.56-7.31l.066 2.105-5.208.165-.067-2.105m-.21-1.737l-.44-2.06 6.44-1.38.44 2.06zm2.4-7.388l.8 1.947-4.15 1.713-.8-1.95m9.06-10.38L70 20.83l-11 7.055-1.135-1.774m-.845-4.47l1.432 1.54-1.664 1.55-1.437-1.54M38.73 36.98c-.168-.194-.374-.343-.618-.447-.243-.104-.52-.156-.832-.156h-1.087v4.51h1.087c.31 0 .59-.052.833-.156.244-.1.45-.25.62-.44.167-.19.296-.43.386-.71.09-.28.13-.59.13-.94 0-.34-.05-.66-.14-.93-.1-.28-.22-.51-.39-.71z"/><path d="M53.593 38.995l-.047-1.544-4.678.15 4.577-.97-.32-1.51-4.58.98 4.33-1.77-.585-1.43-4.328 1.78 3.942-2.52-.832-1.3-3.946 2.52 3.434-3.18-1.06-1.13-3.43 3.19 2.8-3.74-1.24-.93-2.81 3.75 2.09-4.19-1.38-.69-2.098 4.19 1.313-4.5-1.48-.43-1.315 4.49.49-4.66-1.534-.16-.5 4.82-.38-4.83-1.54.12.36 4.66-1.19-4.52-1.49.39 1.19 4.53-1.98-4.24-1.4.65 1.983 4.24-2.71-3.82-1.26.9 2.71 3.82-3.35-3.28-1.07 1.1 3.34 3.28-3.88-2.62-.87 1.27 3.87 2.63-4.28-1.89-.63 1.42 4.28 1.9-4.55-1.09-.36 1.5 4.55 1.098-4.67-.27-.09 1.54 4.67.27-4.64.57.19 1.53 4.65-.57-4.47 1.39.46 1.475 4.47-1.39-4.15 2.164.71 1.37 4.15-2.17-3.7 2.87.94 1.22 3.7-2.87L30.9 48l1.15 1.03 3.124-3.485-2.456 3.99 1.314.81 2.457-3.99-1.7 4.36 1.44.56 1.7-4.36-.9 4.596 1.51.3.89-4.59-.07 4.68 1.54.02.06-4.68.77 4.62 1.52-.25-.78-4.61 1.58 4.41 1.45-.52-1.59-4.4 2.34 4.05 1.34-.77-2.35-4.05 3.03 3.57 1.18-1-3.03-3.57 3.61 2.97.98-1.19-3.626-2.97 4.1 2.28.75-1.35-4.09-2.27 4.43 1.51.5-1.46-4.44-1.51 4.63.7.23-1.52-4.63-.69 4.67-.15zm-12.938 1.028c-.174.428-.42.8-.74 1.112-.316.313-.698.556-1.146.732-.45.175-.95.262-1.49.262h-2.73v-7.01h2.72c.54 0 1.04.08 1.49.26.44.17.83.42 1.14.73.32.31.56.68.74 1.11.17.42.26.89.26 1.39-.01.5-.09.97-.27 1.4zm5.554-3.653h-2.88v1.636h2.2v1.202h-2.2v1.67h2.87v1.25h-4.51v-7.01h4.51v1.252zm38.06 16.12c0 .397-.07.76-.19 1.085-.13.327-.31.606-.54.838-.23.233-.51.412-.83.54-.32.127-.68.19-1.07.19h-1.98V49.83h1.98c.39 0 .74.064 1.07.19.32.128.6.31.82.542.23.234.41.513.53.84.12.327.19.69.19 1.087zm-.74 0c0-.328-.05-.62-.14-.876-.09-.257-.22-.475-.38-.653-.17-.17-.36-.31-.6-.4-.23-.09-.49-.14-.78-.14h-1.26v4.15h1.26c.28 0 .54-.05.77-.14.24-.09.43-.23.6-.4.16-.17.29-.39.38-.65.09-.25.13-.55.13-.87zm7.19-2.66v.586h-2.55v1.765h2.06v.57h-2.06v1.82h2.55v.59h-3.27v-5.32h3.27zm5.29 4.743c.22 0 .41-.037.59-.112.17-.07.32-.17.44-.31s.21-.29.27-.47c.06-.18.09-.39.09-.61v-3.23h.71v3.23c0 .31-.05.59-.15.86-.1.27-.24.49-.42.68-.18.19-.4.34-.66.45-.26.11-.56.17-.89.17-.33 0-.62-.05-.88-.16-.27-.11-.49-.26-.67-.45-.19-.19-.33-.42-.43-.68-.1-.26-.15-.55-.15-.85v-3.23h.71v3.23c0 .23.03.43.09.61.06.19.16.35.28.48.12.14.27.24.44.32.18.08.37.12.59.12zm9.16-4.743v.604h-1.72v4.71h-.72v-4.71H101v-.605h4.16zm5.67.83c-.03.037-.05.066-.07.084-.03.02-.06.028-.1.028-.04 0-.09-.02-.15-.063-.06-.05-.13-.09-.21-.14-.09-.05-.19-.1-.31-.14-.12-.05-.27-.07-.44-.07-.16 0-.3.02-.43.06s-.23.1-.31.17c-.09.07-.15.16-.19.26-.05.1-.07.2-.07.32 0 .15.03.27.11.37.07.09.16.18.28.25.12.07.26.13.41.18.16.05.31.1.47.15.16.05.32.11.47.18.15.07.28.15.41.26.12.1.21.23.29.38.07.15.11.33.11.55 0 .23-.04.45-.12.65-.08.2-.2.38-.35.53-.15.15-.34.27-.56.35-.22.09-.47.13-.76.13-.34 0-.66-.06-.94-.19-.28-.13-.53-.3-.73-.51l.21-.34c.02-.03.04-.05.07-.07.02-.02.06-.03.09-.03.05 0 .11.03.18.08.06.05.15.11.25.18.1.06.22.12.36.18.14.06.31.08.52.08.17 0 .32-.03.46-.07.13-.05.25-.12.34-.2.09-.09.16-.19.21-.31.05-.12.07-.25.07-.4 0-.16-.04-.3-.11-.4-.07-.1-.17-.19-.29-.26-.11-.07-.25-.13-.4-.17l-.47-.15c-.16-.05-.31-.11-.47-.18-.15-.067-.288-.15-.406-.26-.12-.106-.22-.24-.29-.4-.07-.16-.11-.36-.11-.59 0-.19.04-.37.11-.55.07-.175.18-.33.32-.467.136-.14.31-.25.51-.33.21-.08.44-.13.706-.13.3 0 .57.05.816.14.24.1.454.23.64.41l-.178.34zm7.15 3.386c.04 0 .07.016.1.048l.28.308c-.22.253-.48.45-.79.59-.31.14-.69.21-1.13.21-.39 0-.73-.065-1.05-.197-.31-.133-.58-.318-.8-.557-.22-.238-.39-.524-.51-.858-.12-.333-.18-.7-.18-1.1 0-.402.07-.77.2-1.103.13-.334.31-.62.54-.86.24-.24.52-.426.84-.558.32-.14.69-.2 1.08-.2s.73.06 1.01.18.53.28.75.49l-.24.33-.06.06c-.02.01-.05.02-.1.02-.03 0-.07-.02-.1-.04-.04-.03-.08-.05-.13-.09-.05-.04-.11-.07-.18-.11-.07-.04-.15-.08-.24-.11s-.2-.07-.32-.09c-.12-.03-.26-.04-.42-.04-.29 0-.55.05-.78.14-.24.1-.44.24-.61.42-.17.18-.31.4-.4.66-.1.26-.15.55-.15.87 0 .33.044.62.14.88.093.26.223.48.39.65.163.18.36.31.582.41.22.09.47.14.72.14.16 0 .3-.01.42-.03.13-.02.24-.05.35-.09.11-.04.21-.09.3-.15s.19-.14.28-.22c.04-.04.086-.06.12-.06zm7.84 1.098h-.73v-2.418h-2.87v2.418h-.73V49.83h.73v2.37h2.86v-2.37h.72v5.314zm4.21-.604h2.3v.604h-3.02V49.83h.72v4.71zm9.66.604h-.56c-.07 0-.12-.016-.16-.048-.04-.032-.07-.073-.09-.122l-.5-1.283H136l-.495 1.29c-.017.05-.047.09-.09.12-.04.04-.09.05-.15.05h-.56l2.123-5.31h.73l2.126 5.32zm-3.48-1.973h1.98l-.84-2.16c-.05-.13-.11-.3-.16-.5-.03.1-.06.2-.08.28-.03.09-.05.16-.08.23l-.84 2.16zm6.86-3.31c.03.02.06.05.1.1l3.07 4.01c-.01-.06-.01-.12-.02-.18s-.01-.12-.01-.17v-3.77h.63v5.32h-.37c-.05 0-.1-.01-.14-.03-.04-.02-.08-.05-.11-.1l-3.08-4c0 .07.01.13.01.19v3.95h-.63v-5.31h.37c.06 0 .11.01.14.03zM155 52.49c0 .397-.063.76-.19 1.085-.126.327-.303.606-.534.838-.23.233-.505.412-.827.54-.32.127-.68.19-1.07.19h-1.99V49.83h1.99c.39 0 .74.064 1.06.19.32.128.59.31.82.542.23.234.41.513.53.84.12.327.19.69.19 1.087zm-.738 0c0-.328-.044-.62-.133-.876-.09-.257-.22-.475-.38-.653-.17-.17-.36-.31-.6-.4-.24-.09-.49-.14-.78-.14h-1.27v4.15h1.26c.28 0 .54-.05.77-.14.23-.09.43-.23.59-.4.16-.17.29-.39.38-.65.08-.26.13-.55.13-.87z"/></svg>